<?xml version="1.0" encoding="UTF-8"?>
<svg width="31px" height="31px" viewBox="0 0 31 31" version="1.1" xmlns="http://www.w3.org/2000/svg" xmlns:xlink="http://www.w3.org/1999/xlink">
    <!-- Generator: Sketch 51.3 (57544) - http://www.bohemiancoding.com/sketch -->
    <title>Launch Pad Logo</title>
    <desc>Created with Sketch.</desc>
    <defs>
        <linearGradient x1="50%" y1="0%" x2="50%" y2="100%" id="linearGradient-1">
            <stop stop-color="#A24CF7" offset="0%"></stop>
            <stop stop-color="#6925EB" offset="100%"></stop>
        </linearGradient>
        <linearGradient x1="50%" y1="0%" x2="50%" y2="100%" id="linearGradient-2">
            <stop stop-color="#6925EB" offset="0%"></stop>
            <stop stop-color="#EB2594" offset="100%"></stop>
        </linearGradient>
    </defs>
    <g id="Main-Screens" stroke="none" stroke-width="1" fill="none" fill-rule="evenodd">
        <g id="Desktop-HD" transform="translate(-66.000000, -48.000000)">
            <g id="Nav-Bar" transform="translate(0.000000, 33.000000)">
                <g id="Launch-Pad-Logo" transform="translate(82.273864, 30.273864) rotate(45.000000) translate(-82.273864, -30.273864) translate(70.773864, 10.273864)">
                    <path d="M11.4440117,40 C13.9942421,39.7372512 15.8733592,36.5842662 15.0680233,33.9567786 C14.2626874,31.329291 12.1151249,28.7018035 10.5044531,27.3880597 C11.4440117,31.5920398 7.82,32.1175373 7.82,35.5332711 C7.82,37.3725124 8.89378123,39.4745025 11.4440117,40 Z M10.1286313,37.1097637 C10.1286313,35.5332711 11.4708578,34.4822761 11.4708578,34.4822761 C11.4708578,34.4822761 12.8130844,35.5332711 12.8130844,37.1097637 C12.8130844,38.6862562 11.4708578,39.7372512 11.4708578,39.7372512 C11.4708578,39.7372512 10.1286313,38.6862562 10.1286313,37.1097637 Z" id="Flame" fill="url(#linearGradient-1)" transform="translate(11.538333, 33.694030) scale(-1, 1) rotate(180.000000) translate(-11.538333, -33.694030) "></path>
                    <path d="M17.8863105,28.5392326 C17.0706851,29.5640295 15.2969957,29.8880597 11.5012284,29.8880597 C7.7037563,29.8880597 5.93017879,29.5637384 5.11504787,28.5378513 C4.74437335,28.9146038 4.48496574,29.3209817 4.48496574,29.7446941 C4.48496574,31.7056719 8.36379969,34.4265435 5.04012346,33.4524675 C1.71644722,32.4783914 -6.82121026e-13,31.7056719 -6.82121026e-13,29.7446941 C-6.82121026e-13,28.1657476 1.87762328,26.8275166 4.47414596,26.3660238 C4.40591859,25.2634056 4.48622843,23.8400488 4.48622843,22.0149254 C4.48622843,15.5853417 7.99372843,0.0373134328 11.5012284,0.0373134328 C15.0087284,0.0373134328 18.5162284,15.5853417 18.5162284,22.0149254 C18.5162284,23.8402873 18.5965592,25.2637775 18.5282841,26.366456 C21.1235482,26.8283517 23,28.1662402 23,29.7446941 C23,31.7056719 21.2835528,32.4783914 17.9598765,33.4524675 C14.6362003,34.4265435 18.5150343,31.7056719 18.5150343,29.7446941 C18.5150343,29.3214995 18.2562603,28.915597 17.8863105,28.5392326 Z" id="Combined-Shape" fill="url(#linearGradient-2)"></path>
                    <path d="M4.60000105,27.3880608 C5.4622386,28.3260131 7.36797727,28.3260131 11.5091454,28.3260131 C15.6328954,28.3260131 17.5399813,28.3260131 18.4073544,27.3998465 C17.9876328,29.3714908 16.4904696,29.9304907 11.504924,29.9304907 C6.50945872,29.9304907 5.01627126,29.3692642 4.60000105,27.3880608 Z" id="Combined-Shape" fill="#FF26A0"></path>
                </g>
            </g>
        </g>
    </g>
</svg>